<svg width="24" height="19" viewBox="0 0 24 19" fill="none" xmlns="http://www.w3.org/2000/svg">
<path d="M2.06897 1.617V1.21277C2.06897 0.542972 2.62475 0 3.31034 0H9.93103C10.7946 0 11.5552 0.430742 12 1.0843C12.4448 0.430742 13.2054 0 14.069 0H20.6897C21.3752 0 21.931 0.542972 21.931 1.21277V1.617L22.3439 1.61702C23.2583 1.61702 24 2.33652 24 3.23024V16.166C24 16.1841 23.9997 16.2022 23.9991 16.2201V16.9745C23.9991 17.6435 23.4442 18.1915 22.7568 18.1915L13.4337 18.1916C13.1475 18.6749 12.6127 19 12 19C11.3873 19 10.8525 18.6749 10.5663 18.1916L1.24226 18.1917C0.55488 18.1917 0 17.6516 0 16.9827V3.23024C0 2.33652 0.74165 1.61702 1.65606 1.61702L2.06897 1.617ZM3.31034 0.808511C3.08182 0.808511 2.89655 0.989504 2.89655 1.21277V13.3404C2.89655 13.5637 3.08182 13.7447 3.31034 13.7447H10.1494C10.6944 13.7447 11.2068 13.9538 11.5862 14.3114V2.42553C11.5862 1.53248 10.8452 0.808511 9.93103 0.808511H3.31034ZM12.4138 2.42553V14.3114C12.7932 13.9538 13.3056 13.7447 13.8506 13.7447H20.6897C20.9182 13.7447 21.1034 13.5637 21.1034 13.3404V1.21277C21.1034 0.989504 20.9182 0.808511 20.6897 0.808511H14.069C13.1548 0.808511 12.4138 1.53248 12.4138 2.42553ZM12.0017 14.8589H11.9983L12 14.862L12.0017 14.8589ZM1.50864 2.43814C1.11956 2.50541 0.827586 2.83464 0.827586 3.23024V16.174C0.827586 16.6182 1.1957 16.9787 1.65606 16.9787H10.805L10.9245 17.1805C11.1397 17.5441 11.541 17.7872 12 17.7872C12.459 17.7872 12.8603 17.5441 13.0755 17.1805L13.195 16.9787H22.3439C22.8007 16.9787 23.1724 16.6137 23.1724 16.166V3.23024C23.1724 2.83464 22.8804 2.50541 22.4914 2.43814L22.7586 2.82979V14.5532C22.7586 15.223 22.2028 15.766 21.5172 15.766H12.4626L12 16.6699L11.5374 15.766H2.48276C1.79716 15.766 1.24138 15.223 1.24138 14.5532V2.82979L1.50864 2.43814Z" fill="#8882A5"/>
</svg>
