<svg width="357" height="61" viewBox="0 0 357 61" fill="none" xmlns="http://www.w3.org/2000/svg">
<path d="M0 49.0846C0 43.9375 4.17268 39.7648 9.31985 39.7648H18.6397V49.0846C18.6397 54.2318 14.467 58.4045 9.31985 58.4045C4.17268 58.4045 0 54.2318 0 49.0846Z" fill="#24CB71"/>
<path d="M18.6396 2.48535V21.1251H27.9595C33.1067 21.1251 37.2794 16.9524 37.2794 11.8052C37.2794 6.65804 33.1067 2.48535 27.9595 2.48535H18.6396Z" fill="#FF7237"/>
<path d="M27.8819 39.7648C33.0291 39.7648 37.2017 35.5921 37.2017 30.4449C37.2017 25.2977 33.0291 21.1251 27.8819 21.1251C22.7347 21.1251 18.562 25.2977 18.562 30.4449C18.562 35.5921 22.7347 39.7648 27.8819 39.7648Z" fill="#00B6FF"/>
<path d="M0 11.8052C0 16.9524 4.17268 21.1251 9.31985 21.1251H18.6397V2.48535H9.31985C4.17268 2.48535 0 6.65804 0 11.8052Z" fill="#FF3737"/>
<path d="M0 30.4449C0 35.5921 4.17268 39.7648 9.31985 39.7648H18.6397V21.1251H9.31985C4.17268 21.1251 0 25.2977 0 30.4449Z" fill="#874FFF"/>
<path d="M260.537 0H220.393C214.314 0 209.386 4.92778 209.386 11.0065V49.5973C209.386 55.6761 214.314 60.6038 220.393 60.6038H260.537C266.616 60.6038 271.544 55.6761 271.544 49.5973V11.0065C271.544 4.92778 266.616 0 260.537 0Z" fill="#001E36"/>
<path d="M223.383 42.4993V15.8539C223.383 15.6608 223.465 15.5624 223.633 15.5624C224.076 15.5624 224.483 15.5624 225.091 15.5418C225.698 15.5211 226.362 15.5138 227.071 15.5005L229.323 15.458C230.115 15.4442 230.9 15.4373 231.678 15.4373C233.791 15.4373 235.572 15.7013 237.023 16.2292C238.326 16.6712 239.515 17.3976 240.504 18.356C241.341 19.1871 241.989 20.1904 242.401 21.2964C242.79 22.3734 242.987 23.5107 242.982 24.656C242.982 26.8811 242.468 28.7159 241.44 30.1604C240.404 31.6112 238.949 32.7099 237.27 33.3086C235.519 33.9621 233.572 34.1831 231.432 34.1831C230.825 34.1831 230.39 34.1771 230.14 34.1625C229.889 34.1479 229.514 34.1418 229.014 34.1418V42.4605C229.02 42.5037 229.018 42.5477 229.007 42.5899C228.996 42.6322 228.977 42.672 228.951 42.7069C228.925 42.7418 228.892 42.7711 228.854 42.7932C228.817 42.8154 228.775 42.8298 228.732 42.8358C228.701 42.8406 228.669 42.8406 228.638 42.8358H223.674C223.475 42.8321 223.383 42.7216 223.383 42.4993ZM229.014 20.5665V29.2568C229.375 29.2851 229.708 29.2989 230.014 29.2981H231.391C232.403 29.2946 233.409 29.134 234.372 28.822C235.198 28.5777 235.936 28.1013 236.499 27.4495C237.041 26.8106 237.312 25.9199 237.312 24.7774C237.333 23.9707 237.122 23.1749 236.704 22.4843C236.267 21.8163 235.634 21.2994 234.892 21.0037C233.925 20.6282 232.893 20.451 231.856 20.4827C231.188 20.4827 230.597 20.4896 230.084 20.5033C229.57 20.5171 229.216 20.5381 229.02 20.5665H229.014Z" fill="#31A8FF"/>
<path d="M259.104 27.6766C258.321 27.2735 257.486 26.9789 256.623 26.8009C255.672 26.5824 254.7 26.4704 253.725 26.4669C253.198 26.4528 252.671 26.5162 252.162 26.6551C251.837 26.727 251.549 26.9116 251.348 27.1762C251.212 27.3878 251.14 27.634 251.14 27.8855C251.148 28.1293 251.236 28.3638 251.391 28.5523C251.634 28.8373 251.932 29.071 252.266 29.2398C252.86 29.5588 253.473 29.8427 254.1 30.09C255.5 30.5587 256.837 31.1958 258.083 31.9871C258.931 32.5232 259.633 33.261 260.126 34.1345C260.541 34.963 260.75 35.8799 260.733 36.8066C260.758 38.0287 260.409 39.2292 259.732 40.2475C259.008 41.2804 258.002 42.0835 256.834 42.5613C255.566 43.1184 254.001 43.3969 252.139 43.3969C250.956 43.4079 249.776 43.296 248.617 43.0629C247.703 42.8954 246.813 42.6151 245.969 42.2285C245.877 42.1816 245.801 42.1096 245.749 42.0209C245.698 41.9323 245.672 41.8307 245.676 41.7281V37.2256C245.671 37.1815 245.678 37.1367 245.696 37.0962C245.715 37.0558 245.744 37.0211 245.78 36.9961C245.816 36.9756 245.857 36.9667 245.898 36.9704C245.94 36.974 245.978 36.9902 246.01 37.0167C247.009 37.6054 248.093 38.0345 249.224 38.2884C250.22 38.5384 251.242 38.6713 252.269 38.6843C253.24 38.6843 253.956 38.5592 254.416 38.309C254.623 38.2142 254.798 38.0614 254.92 37.8691C255.042 37.6768 255.106 37.4533 255.104 37.2256C255.104 36.8637 254.895 36.5159 254.478 36.1823C254.061 35.8487 253.212 35.4479 251.932 34.9799C250.623 34.5243 249.382 33.893 248.242 33.1033C247.428 32.5373 246.756 31.7886 246.282 30.9171C245.871 30.0957 245.663 29.1877 245.675 28.2693C245.671 27.163 245.975 26.0773 246.552 25.1333C247.207 24.0961 248.149 23.2706 249.263 22.7563C250.485 22.145 252.014 21.8393 253.849 21.8393C254.924 21.8303 255.998 21.9067 257.06 22.0677C257.83 22.1666 258.582 22.3709 259.295 22.675C259.352 22.6912 259.404 22.7204 259.447 22.7603C259.491 22.8001 259.524 22.8495 259.545 22.9045C259.574 23.0061 259.587 23.1112 259.587 23.2167V27.4288C259.59 27.4775 259.581 27.5262 259.559 27.5701C259.538 27.614 259.505 27.6516 259.465 27.679C259.409 27.7066 259.347 27.7207 259.284 27.7203C259.222 27.7198 259.16 27.7049 259.104 27.6766Z" fill="#31A8FF"/>
<path d="M346.268 0.621338H307.128C301.201 0.621338 296.396 5.43351 296.396 11.3696V49.0509C296.396 54.987 301.201 59.7992 307.128 59.7992H346.268C352.195 59.7992 357 54.987 357 49.0509V11.3696C357 5.43351 352.195 0.621338 346.268 0.621338Z" fill="#330000"/>
<path d="M325.763 36.1357H316.371L314.461 42.08C314.436 42.189 314.373 42.2855 314.284 42.3525C314.195 42.4196 314.085 42.453 313.973 42.4467H309.217C308.945 42.4467 308.85 42.2972 308.932 41.9982L317.063 18.5411C317.142 18.2966 317.224 18.0197 317.308 17.7104C317.413 17.1668 317.468 16.6146 317.47 16.0608C317.465 16.0281 317.467 15.9947 317.475 15.9626C317.483 15.9305 317.497 15.9003 317.517 15.8738C317.537 15.8473 317.562 15.8251 317.59 15.8083C317.619 15.7915 317.65 15.7805 317.683 15.776C317.707 15.7724 317.731 15.7724 317.754 15.776H324.218C324.408 15.776 324.516 15.8436 324.544 15.9789L333.772 42.0385C333.854 42.3091 333.772 42.4456 333.528 42.4456H328.243C328.153 42.4557 328.061 42.4323 327.987 42.3799C327.912 42.3275 327.859 42.2496 327.837 42.1607L325.763 36.1357ZM317.836 31.0018H324.258C324.097 30.4583 323.907 29.8475 323.69 29.1695C323.472 28.4915 323.242 27.7652 322.999 26.9907L322.267 24.6706C322.022 23.8968 321.799 23.15 321.596 22.43C321.393 21.7101 321.208 21.0534 321.043 20.4601H321.002C320.773 21.5594 320.488 22.6463 320.148 23.7165C319.769 24.9388 319.382 26.1876 318.989 27.463C318.596 28.7383 318.211 29.918 317.836 31.0018Z" fill="#FF9A00"/>
<path d="M339.26 20.0933C338.845 20.1099 338.432 20.0386 338.046 19.8842C337.661 19.7298 337.313 19.4958 337.024 19.1973C336.736 18.8859 336.512 18.5205 336.366 18.1221C336.219 17.7237 336.153 17.3002 336.171 16.8761C336.157 16.457 336.231 16.0396 336.388 15.6511C336.546 15.2627 336.784 14.9118 337.086 14.6213C337.385 14.3338 337.737 14.1084 338.124 13.9581C338.51 13.8078 338.923 13.7355 339.337 13.7455C340.313 13.7455 341.078 14.0374 341.633 14.6213C342.197 15.2334 342.495 16.0442 342.463 16.8761C342.48 17.302 342.411 17.7269 342.261 18.1257C342.111 18.5245 341.882 18.8889 341.588 19.1973C341.283 19.4991 340.918 19.7344 340.517 19.8886C340.117 20.0428 339.689 20.1125 339.26 20.0933ZM336.455 42.0385V22.576C336.455 22.3315 336.563 22.2093 336.78 22.2093H341.779C341.995 22.2093 342.104 22.328 342.104 22.576V42.0385C342.104 42.3091 341.996 42.4455 341.779 42.4455H336.821C336.577 42.4467 336.455 42.3103 336.455 42.0385Z" fill="#FF9A00"/>
<path fill-rule="evenodd" clip-rule="evenodd" d="M62.1323 39.7652H81.704V58.405L62.1323 39.7652Z" fill="#0055FF"/>
<path d="M81.704 21.1246H62.1323V39.7644H101.276L81.704 21.1246Z" fill="#00AAFF"/>
<path d="M62.1323 2.48535L81.704 21.1252H101.276V2.48535H62.1323Z" fill="#88DDFF"/>
<path d="M182.465 7.39499L170.439 1.604C169.048 0.933699 167.384 1.21641 166.291 2.30849L126.922 38.2035C125.864 39.1702 125.864 40.8368 126.924 41.8013L130.139 44.7241C131.005 45.513 132.312 45.57 133.244 44.8632L180.655 8.89746C182.246 7.69138 184.531 8.8245 184.531 10.8217V10.6826C184.531 9.28048 183.728 8.00145 182.465 7.39499Z" fill="#0065A9"/>
<path d="M182.465 53.1569L170.439 58.9479C169.048 59.6182 167.384 59.3355 166.291 58.2434L126.922 22.3484C125.864 21.384 125.864 19.7151 126.924 18.7529L130.139 15.8301C131.005 15.0412 132.312 14.9842 133.244 15.691L180.655 51.6544C182.246 52.8605 184.531 51.7274 184.531 49.7302V49.8693C184.531 51.2714 183.728 52.5504 182.465 53.1569Z" fill="#007ACC"/>
<path d="M170.441 58.9479C169.048 59.6182 167.386 59.3355 166.292 58.2411C167.637 59.5863 169.939 58.6333 169.939 56.7295V3.81945C169.939 1.91572 167.637 0.962711 166.292 2.30786C167.384 1.21578 169.048 0.933073 170.441 1.60109L182.465 7.38296C183.728 7.9917 184.533 9.26846 184.533 10.6706V49.8784C184.533 51.2805 183.731 52.5573 182.465 53.166L170.441 58.9479Z" fill="#1F9CF0"/>
<g opacity="0.25">
<path fill-rule="evenodd" clip-rule="evenodd" d="M167.518 59.0597C168.437 59.4177 169.486 59.3949 170.414 58.948L182.431 53.1661C183.694 52.5597 184.497 51.2806 184.497 49.8785V10.673C184.497 9.27084 183.694 7.99409 182.431 7.38535L170.414 1.60348C169.196 1.01754 167.771 1.16117 166.702 1.93862C166.549 2.05034 166.403 2.17346 166.266 2.31025L143.262 23.2969L133.242 15.6888C132.309 14.9798 131.005 15.039 130.139 15.8279L126.924 18.7507C125.864 19.7152 125.864 21.3818 126.922 22.3485L135.613 30.2757L126.922 38.203C125.864 39.1697 125.864 40.8363 126.924 41.8007L130.139 44.7236C131.005 45.5124 132.309 45.5694 133.242 44.8627L143.262 37.2568L166.266 58.2435C166.631 58.606 167.057 58.8819 167.518 59.0597ZM169.912 17.0271L152.457 30.2757L169.912 43.5266V17.0271Z" fill="url(#paint0_linear_2184_50)"/>
</g>
<defs>
<linearGradient id="paint0_linear_2184_50" x1="155.312" y1="1.24325" x2="155.312" y2="59.3083" gradientUnits="userSpaceOnUse">
<stop stop-color="white"/>
<stop offset="1" stop-color="white" stop-opacity="0"/>
</linearGradient>
</defs>
</svg>
