<svg width="24" height="24" viewBox="0 0 24 24" fill="none" xmlns="http://www.w3.org/2000/svg">
<path fill-rule="evenodd" clip-rule="evenodd" d="M6.00883 0H9.01324V3H15.0221V6H13.3217C12.875 8.50494 11.6958 10.7568 10.0131 12.5267C11.215 13.1091 12.5545 13.4526 13.9697 13.4955L15.4329 9H19.1178L24 24H20.8409L19.8644 21H14.6863L13.7098 24H10.5507L13.0118 16.4388C11.0058 16.2427 9.13589 15.5832 7.51102 14.5687C5.55059 15.7926 3.23357 16.5 0.751103 16.5H0V13.5H0.751103C2.2775 13.5 3.72209 13.1503 5.00891 12.5267C4.03164 11.4987 3.22417 10.3082 2.63143 9H6.04156C6.45983 9.65236 6.95377 10.2517 7.51102 10.7857C8.84414 9.50822 9.81495 7.85665 10.2542 6H0V3H6.00883V0ZM18.888 18L17.2754 13.0453L15.6628 18H18.888Z" fill="#8882A5"/>
</svg>
