<svg width="251" height="31" viewBox="0 0 251 31" fill="none" xmlns="http://www.w3.org/2000/svg">
<path d="M239.74 25.92C243.295 25.92 245.095 23.67 245.095 19.17C245.095 14.67 243.295 12.465 239.74 12.465C236.185 12.465 234.385 14.67 234.385 19.17C234.385 23.67 236.185 25.92 239.74 25.92ZM239.74 30.825C232.585 30.825 228.355 26.055 228.355 19.17C228.355 12.15 232.72 7.51501 239.74 7.51501C246.67 7.51501 250.99 12.105 250.99 19.17C250.99 26.19 246.625 30.825 239.74 30.825Z" fill="#171135"/>
<path d="M226.289 30.24H220.394V16.83C220.394 13.41 219.404 12.465 216.614 12.465C213.554 12.465 212.069 14.175 212.069 17.55V30.24H206.219V8.10001H211.799V11.34C213.149 8.86501 215.399 7.51501 218.954 7.51501C223.184 7.51501 226.289 10.08 226.289 14.895V30.24Z" fill="#171135"/>
<path d="M203.547 30.24H197.697V8.1H203.547V30.24ZM203.547 5.445H197.697V0H203.547V5.445Z" fill="#171135"/>
<path d="M195.106 30.24H189.256V0H195.106V30.24Z" fill="#171135"/>
<path d="M175.888 25.92C179.443 25.92 181.243 23.67 181.243 19.17C181.243 14.67 179.443 12.465 175.888 12.465C172.333 12.465 170.533 14.67 170.533 19.17C170.533 23.67 172.333 25.92 175.888 25.92ZM175.888 30.825C168.733 30.825 164.503 26.055 164.503 19.17C164.503 12.15 168.868 7.51501 175.888 7.51501C182.818 7.51501 187.138 12.105 187.138 19.17C187.138 26.19 182.773 30.825 175.888 30.825Z" fill="#171135"/>
<path d="M151.928 26.055C154.718 26.055 156.878 23.445 156.878 19.71C156.878 14.895 155.213 12.51 151.973 12.51C148.553 12.51 146.933 14.805 146.933 19.35C146.933 23.31 149.003 26.055 151.928 26.055ZM162.413 30.24H156.788L156.743 27.54C155.348 29.79 153.278 30.825 150.578 30.825C144.998 30.825 140.993 26.415 140.993 18.945C140.993 12.24 144.368 7.515 150.083 7.515C152.828 7.515 154.988 8.64 156.653 10.98V0H162.413V30.24Z" fill="#171135"/>
<path d="M134.198 30.24H128.348V8.10001H133.838V10.755C135.773 7.78502 138.023 7.51501 140.408 7.51501H141.173V13.5C140.633 13.41 140.093 13.365 139.553 13.365C135.953 13.365 134.198 15.165 134.198 18.72V30.24Z" fill="#171135"/>
<path d="M111.251 17.01H120.296C120.206 13.725 118.046 12.15 115.751 12.15C113.411 12.15 111.476 13.95 111.251 17.01ZM126.326 20.7H111.071C111.251 24.03 113.141 26.19 116.021 26.19C117.911 26.19 119.576 25.245 119.981 23.715H126.011C124.661 28.26 121.016 30.825 116.291 30.825C108.911 30.825 105.221 26.775 105.221 18.765C105.221 11.925 109.136 7.51501 115.931 7.51501C122.726 7.51501 126.326 11.925 126.326 20.7Z" fill="#171135"/>
<path d="M99.722 30.24H93.467V5.57998H84.467V0.359985H108.767V5.57998H99.722V30.24Z" fill="#171135"/>
<path d="M66.1278 21.825L66.1728 19.395C65.5878 19.98 64.5528 20.295 62.3928 20.7C59.0628 21.33 57.9828 22.275 57.9828 24.165C57.9828 25.83 58.9728 26.64 60.8178 26.64C63.8328 26.64 66.0828 24.435 66.1278 21.825ZM72.0228 30.24H66.5778C66.3978 29.7 66.2628 28.935 66.2178 28.26C64.8228 29.79 62.4828 30.825 59.5128 30.825C54.4728 30.825 52.1328 28.35 52.1328 24.75C52.1328 18.36 56.4078 17.64 62.3028 16.83C65.2278 16.425 66.0378 15.84 66.0378 14.31C66.0378 12.87 64.5978 12.015 62.3028 12.015C59.6478 12.015 58.5678 13.32 58.2978 15.3H52.8528C52.9428 10.71 55.4628 7.51501 62.5728 7.51501C69.5928 7.51501 72.0228 10.665 72.0228 16.245V30.24Z" fill="#171135"/>
<path d="M50.1559 30.24H44.2609V16.83C44.2609 13.41 43.2709 12.465 40.4809 12.465C37.4209 12.465 35.9359 14.175 35.9359 17.55V30.24H30.0859V8.10001H35.6659V11.34C37.0159 8.86501 39.2659 7.51501 42.8209 7.51501C47.0509 7.51501 50.1559 10.08 50.1559 14.895V30.24Z" fill="#171135"/>
<path d="M18.09 18.945L14.355 7.06499H14.31L10.485 18.945H18.09ZM28.575 30.24H21.78L19.89 24.075H8.86501L6.75001 30.24H0.13501L10.8 0.359985H18.045L28.575 30.24Z" fill="#171135"/>
</svg>
