<svg width="827" height="280" viewBox="0 0 827 280" fill="none" xmlns="http://www.w3.org/2000/svg">
<path d="M47.175 146.68H22.95V214H0V44.68H47.175C70.635 44.68 79.305 57.175 79.305 78.595V112.765C79.305 134.185 70.635 146.68 47.175 146.68ZM22.95 65.335V126.79H42.585C53.295 126.79 57.63 120.415 57.63 109.195V81.145C57.63 70.945 53.295 65.335 42.585 65.335H22.95Z" fill="#171135"/>
<path d="M177.167 128.32V177.28C177.167 203.545 164.927 215.53 138.917 215.53C112.907 215.53 100.667 203.545 100.667 177.28V128.32C100.667 102.055 112.907 90.07 138.917 90.07C164.927 90.07 177.167 102.055 177.167 128.32ZM155.747 177.28V128.32C155.747 115.825 150.137 109.96 138.917 109.96C127.697 109.96 122.087 115.825 122.087 128.32V177.28C122.087 189.775 127.697 195.64 138.917 195.64C150.137 195.64 155.747 189.775 155.747 177.28Z" fill="#171135"/>
<path d="M226.739 214H204.809V91.6H225.209L225.974 112.51H226.994C231.839 98.23 240.764 90.07 253.514 90.07C257.084 90.07 260.399 90.835 263.714 92.62V112.765C261.419 111.235 257.339 110.215 252.239 110.215C238.724 110.215 230.819 117.1 226.739 138.775V214Z" fill="#171135"/>
<path d="M341.831 177.28V144.13H360.701V177.28C360.701 203.035 352.286 215.53 326.531 215.53C300.266 215.53 288.281 203.035 288.281 177.28V57.685H309.956V91.6H360.701V111.235H309.956V177.28C309.956 189.775 315.311 195.64 326.786 195.64C337.751 195.64 341.831 189.775 341.831 177.28Z" fill="#171135"/>
<path d="M446.603 91.6V111.235H421.613V214H399.683V111.235H384.383V91.6H399.683V78.34C399.683 54.625 412.178 42.64 437.168 42.64H446.093V62.275H437.168C426.713 62.275 421.613 67.63 421.613 78.34V91.6H446.603Z" fill="#171135"/>
<path d="M542.684 128.32V177.28C542.684 203.545 530.444 215.53 504.434 215.53C478.424 215.53 466.184 203.545 466.184 177.28V128.32C466.184 102.055 478.424 90.07 504.434 90.07C530.444 90.07 542.684 102.055 542.684 128.32ZM521.264 177.28V128.32C521.264 115.825 515.654 109.96 504.434 109.96C493.214 109.96 487.604 115.825 487.604 128.32V177.28C487.604 189.775 493.214 195.64 504.434 195.64C515.654 195.64 521.264 189.775 521.264 177.28ZM534.269 48.25L493.214 85.48L484.544 76.555L522.539 34.99L534.269 48.25Z" fill="#171135"/>
<path d="M592.255 214H570.325V42.64H592.255V214Z" fill="#171135"/>
<path d="M641.612 214H619.682V91.6H641.612V214ZM641.612 76.555H619.682V49.015H641.612V76.555Z" fill="#171135"/>
<path d="M745.538 128.32V177.28C745.538 203.545 733.298 215.53 707.288 215.53C681.278 215.53 669.038 203.545 669.038 177.28V128.32C669.038 102.055 681.278 90.07 707.288 90.07C733.298 90.07 745.538 102.055 745.538 128.32ZM724.118 177.28V128.32C724.118 115.825 718.508 109.96 707.288 109.96C696.068 109.96 690.458 115.825 690.458 128.32V177.28C690.458 189.775 696.068 195.64 707.288 195.64C718.508 195.64 724.118 189.775 724.118 177.28Z" fill="#171135"/>
<g opacity="0.25">
<path d="M797 28.0092L761.959 39.5296C761.043 39.8307 760.327 40.5537 760.036 41.4728L754 60.5092L766 72.5092L785.522 65.5369C786.448 65.2063 787.153 64.4433 787.409 63.4944L797 28.0092ZM797 28.0092C797 28.0092 783.287 42.0271 774.5 51.0092M771 5.00917C786.167 4.67584 817.5 13.3092 821.5 50.5092" stroke="#85858A" stroke-width="6" stroke-linecap="round"/>
<circle cx="774" cy="51" r="5" fill="#85858A"/>
<circle cx="822" cy="51" r="5" fill="#85858A"/>
<circle cx="769" cy="5" r="5" fill="#85858A"/>
</g>
<path d="M50.82 245.09C53.1 245.09 55.07 245.52 56.73 246.38C58.41 247.22 59.69 248.43 60.57 250.01C61.47 251.59 61.92 253.45 61.92 255.59C61.92 257.73 61.47 259.59 60.57 261.17C59.69 262.73 58.41 263.93 56.73 264.77C55.07 265.59 53.1 266 50.82 266H44.31V245.09H50.82ZM50.82 263.75C53.52 263.75 55.58 263.04 57 261.62C58.42 260.18 59.13 258.17 59.13 255.59C59.13 252.99 58.41 250.96 56.97 249.5C55.55 248.04 53.5 247.31 50.82 247.31H47.04V263.75H50.82ZM80.5209 257.15C80.5209 257.67 80.4909 258.22 80.4309 258.8H67.2909C67.3909 260.42 67.9409 261.69 68.9409 262.61C69.9609 263.51 71.1909 263.96 72.6309 263.96C73.8109 263.96 74.7909 263.69 75.5709 263.15C76.3709 262.59 76.9309 261.85 77.2509 260.93H80.1909C79.7509 262.51 78.8709 263.8 77.5509 264.8C76.2309 265.78 74.5909 266.27 72.6309 266.27C71.0709 266.27 69.6709 265.92 68.4309 265.22C67.2109 264.52 66.2509 263.53 65.5509 262.25C64.8509 260.95 64.5009 259.45 64.5009 257.75C64.5009 256.05 64.8409 254.56 65.5209 253.28C66.2009 252 67.1509 251.02 68.3709 250.34C69.6109 249.64 71.0309 249.29 72.6309 249.29C74.1909 249.29 75.5709 249.63 76.7709 250.31C77.9709 250.99 78.8909 251.93 79.5309 253.13C80.1909 254.31 80.5209 255.65 80.5209 257.15ZM77.7009 256.58C77.7009 255.54 77.4709 254.65 77.0109 253.91C76.5509 253.15 75.9209 252.58 75.1209 252.2C74.3409 251.8 73.4709 251.6 72.5109 251.6C71.1309 251.6 69.9509 252.04 68.9709 252.92C68.0109 253.8 67.4609 255.02 67.3209 256.58H77.7009ZM89.9445 266.27C88.6845 266.27 87.5545 266.06 86.5545 265.64C85.5545 265.2 84.7645 264.6 84.1845 263.84C83.6045 263.06 83.2845 262.17 83.2245 261.17H86.0445C86.1245 261.99 86.5045 262.66 87.1845 263.18C87.8845 263.7 88.7945 263.96 89.9145 263.96C90.9545 263.96 91.7745 263.73 92.3745 263.27C92.9745 262.81 93.2745 262.23 93.2745 261.53C93.2745 260.81 92.9545 260.28 92.3145 259.94C91.6745 259.58 90.6845 259.23 89.3445 258.89C88.1245 258.57 87.1245 258.25 86.3445 257.93C85.5845 257.59 84.9245 257.1 84.3645 256.46C83.8245 255.8 83.5545 254.94 83.5545 253.88C83.5545 253.04 83.8045 252.27 84.3045 251.57C84.8045 250.87 85.5145 250.32 86.4345 249.92C87.3545 249.5 88.4045 249.29 89.5845 249.29C91.4045 249.29 92.8745 249.75 93.9945 250.67C95.1145 251.59 95.7145 252.85 95.7945 254.45H93.0645C93.0045 253.59 92.6545 252.9 92.0145 252.38C91.3945 251.86 90.5545 251.6 89.4945 251.6C88.5145 251.6 87.7345 251.81 87.1545 252.23C86.5745 252.65 86.2845 253.2 86.2845 253.88C86.2845 254.42 86.4545 254.87 86.7945 255.23C87.1545 255.57 87.5945 255.85 88.1145 256.07C88.6545 256.27 89.3945 256.5 90.3345 256.76C91.5145 257.08 92.4745 257.4 93.2145 257.72C93.9545 258.02 94.5845 258.48 95.1045 259.1C95.6445 259.72 95.9245 260.53 95.9445 261.53C95.9445 262.43 95.6945 263.24 95.1945 263.96C94.6945 264.68 93.9845 265.25 93.0645 265.67C92.1645 266.07 91.1245 266.27 89.9445 266.27ZM114.798 257.15C114.798 257.67 114.768 258.22 114.708 258.8H101.568C101.668 260.42 102.218 261.69 103.218 262.61C104.238 263.51 105.468 263.96 106.908 263.96C108.088 263.96 109.068 263.69 109.848 263.15C110.648 262.59 111.208 261.85 111.528 260.93H114.468C114.028 262.51 113.148 263.8 111.828 264.8C110.508 265.78 108.868 266.27 106.908 266.27C105.348 266.27 103.948 265.92 102.708 265.22C101.488 264.52 100.528 263.53 99.8283 262.25C99.1283 260.95 98.7783 259.45 98.7783 257.75C98.7783 256.05 99.1183 254.56 99.7983 253.28C100.478 252 101.428 251.02 102.648 250.34C103.888 249.64 105.308 249.29 106.908 249.29C108.468 249.29 109.848 249.63 111.048 250.31C112.248 250.99 113.168 251.93 113.808 253.13C114.468 254.31 114.798 255.65 114.798 257.15ZM111.978 256.58C111.978 255.54 111.748 254.65 111.288 253.91C110.828 253.15 110.198 252.58 109.398 252.2C108.618 251.8 107.748 251.6 106.788 251.6C105.408 251.6 104.228 252.04 103.248 252.92C102.288 253.8 101.738 255.02 101.598 256.58H111.978ZM126.412 249.26C128.412 249.26 130.032 249.87 131.272 251.09C132.512 252.29 133.132 254.03 133.132 256.31V266H130.432V256.7C130.432 255.06 130.022 253.81 129.202 252.95C128.382 252.07 127.262 251.63 125.842 251.63C124.402 251.63 123.252 252.08 122.392 252.98C121.552 253.88 121.132 255.19 121.132 256.91V266H118.402V249.56H121.132V251.9C121.672 251.06 122.402 250.41 123.322 249.95C124.262 249.49 125.292 249.26 126.412 249.26ZM143.711 263.48L148.811 249.56H151.721L145.271 266H142.091L135.641 249.56H138.581L143.711 263.48ZM161.578 266.27C160.038 266.27 158.638 265.92 157.378 265.22C156.138 264.52 155.158 263.53 154.438 262.25C153.738 260.95 153.388 259.45 153.388 257.75C153.388 256.07 153.748 254.59 154.468 253.31C155.208 252.01 156.208 251.02 157.468 250.34C158.728 249.64 160.138 249.29 161.698 249.29C163.258 249.29 164.668 249.64 165.928 250.34C167.188 251.02 168.178 252 168.898 253.28C169.638 254.56 170.008 256.05 170.008 257.75C170.008 259.45 169.628 260.95 168.868 262.25C168.128 263.53 167.118 264.52 165.838 265.22C164.558 265.92 163.138 266.27 161.578 266.27ZM161.578 263.87C162.558 263.87 163.478 263.64 164.338 263.18C165.198 262.72 165.888 262.03 166.408 261.11C166.948 260.19 167.218 259.07 167.218 257.75C167.218 256.43 166.958 255.31 166.438 254.39C165.918 253.47 165.238 252.79 164.398 252.35C163.558 251.89 162.648 251.66 161.668 251.66C160.668 251.66 159.748 251.89 158.908 252.35C158.088 252.79 157.428 253.47 156.928 254.39C156.428 255.31 156.178 256.43 156.178 257.75C156.178 259.09 156.418 260.22 156.898 261.14C157.398 262.06 158.058 262.75 158.878 263.21C159.698 263.65 160.598 263.87 161.578 263.87ZM176.327 243.8V266H173.597V243.8H176.327ZM187.1 263.48L192.2 249.56H195.11L188.66 266H185.48L179.03 249.56H181.97L187.1 263.48ZM212.796 257.15C212.796 257.67 212.766 258.22 212.706 258.8H199.566C199.666 260.42 200.216 261.69 201.216 262.61C202.236 263.51 203.466 263.96 204.906 263.96C206.086 263.96 207.066 263.69 207.846 263.15C208.646 262.59 209.206 261.85 209.526 260.93H212.466C212.026 262.51 211.146 263.8 209.826 264.8C208.506 265.78 206.866 266.27 204.906 266.27C203.346 266.27 201.946 265.92 200.706 265.22C199.486 264.52 198.526 263.53 197.826 262.25C197.126 260.95 196.776 259.45 196.776 257.75C196.776 256.05 197.116 254.56 197.796 253.28C198.476 252 199.426 251.02 200.646 250.34C201.886 249.64 203.306 249.29 204.906 249.29C206.466 249.29 207.846 249.63 209.046 250.31C210.246 250.99 211.166 251.93 211.806 253.13C212.466 254.31 212.796 255.65 212.796 257.15ZM209.976 256.58C209.976 255.54 209.746 254.65 209.286 253.91C208.826 253.15 208.196 252.58 207.396 252.2C206.616 251.8 205.746 251.6 204.786 251.6C203.406 251.6 202.226 252.04 201.246 252.92C200.286 253.8 199.736 255.02 199.596 256.58H209.976ZM215.38 257.72C215.38 256.04 215.72 254.57 216.4 253.31C217.08 252.03 218.01 251.04 219.19 250.34C220.39 249.64 221.73 249.29 223.21 249.29C224.49 249.29 225.68 249.59 226.78 250.19C227.88 250.77 228.72 251.54 229.3 252.5V243.8H232.06V266H229.3V262.91C228.76 263.89 227.96 264.7 226.9 265.34C225.84 265.96 224.6 266.27 223.18 266.27C221.72 266.27 220.39 265.91 219.19 265.19C218.01 264.47 217.08 263.46 216.4 262.16C215.72 260.86 215.38 259.38 215.38 257.72ZM229.3 257.75C229.3 256.51 229.05 255.43 228.55 254.51C228.05 253.59 227.37 252.89 226.51 252.41C225.67 251.91 224.74 251.66 223.72 251.66C222.7 251.66 221.77 251.9 220.93 252.38C220.09 252.86 219.42 253.56 218.92 254.48C218.42 255.4 218.17 256.48 218.17 257.72C218.17 258.98 218.42 260.08 218.92 261.02C219.42 261.94 220.09 262.65 220.93 263.15C221.77 263.63 222.7 263.87 223.72 263.87C224.74 263.87 225.67 263.63 226.51 263.15C227.37 262.65 228.05 261.94 228.55 261.02C229.05 260.08 229.3 258.99 229.3 257.75ZM243.843 266.27C242.303 266.27 240.903 265.92 239.643 265.22C238.403 264.52 237.423 263.53 236.703 262.25C236.003 260.95 235.653 259.45 235.653 257.75C235.653 256.07 236.013 254.59 236.733 253.31C237.473 252.01 238.473 251.02 239.733 250.34C240.993 249.64 242.403 249.29 243.963 249.29C245.523 249.29 246.933 249.64 248.193 250.34C249.453 251.02 250.443 252 251.163 253.28C251.903 254.56 252.273 256.05 252.273 257.75C252.273 259.45 251.893 260.95 251.133 262.25C250.393 263.53 249.383 264.52 248.103 265.22C246.823 265.92 245.403 266.27 243.843 266.27ZM243.843 263.87C244.823 263.87 245.743 263.64 246.603 263.18C247.463 262.72 248.153 262.03 248.673 261.11C249.213 260.19 249.483 259.07 249.483 257.75C249.483 256.43 249.223 255.31 248.703 254.39C248.183 253.47 247.503 252.79 246.663 252.35C245.823 251.89 244.913 251.66 243.933 251.66C242.933 251.66 242.013 251.89 241.173 252.35C240.353 252.79 239.693 253.47 239.193 254.39C238.693 255.31 238.443 256.43 238.443 257.75C238.443 259.09 238.683 260.22 239.163 261.14C239.663 262.06 240.323 262.75 241.143 263.21C241.963 263.65 242.863 263.87 243.843 263.87ZM258.593 252.23C259.073 251.29 259.753 250.56 260.633 250.04C261.533 249.52 262.623 249.26 263.903 249.26V252.08H263.183C260.123 252.08 258.593 253.74 258.593 257.06V266H255.863V249.56H258.593V252.23ZM266.034 257.72C266.034 256.04 266.374 254.57 267.054 253.31C267.734 252.03 268.664 251.04 269.844 250.34C271.044 249.64 272.374 249.29 273.834 249.29C275.274 249.29 276.524 249.6 277.584 250.22C278.644 250.84 279.434 251.62 279.954 252.56V249.56H282.714V266H279.954V262.94C279.414 263.9 278.604 264.7 277.524 265.34C276.464 265.96 275.224 266.27 273.804 266.27C272.344 266.27 271.024 265.91 269.844 265.19C268.664 264.47 267.734 263.46 267.054 262.16C266.374 260.86 266.034 259.38 266.034 257.72ZM279.954 257.75C279.954 256.51 279.704 255.43 279.204 254.51C278.704 253.59 278.024 252.89 277.164 252.41C276.324 251.91 275.394 251.66 274.374 251.66C273.354 251.66 272.424 251.9 271.584 252.38C270.744 252.86 270.074 253.56 269.574 254.48C269.074 255.4 268.824 256.48 268.824 257.72C268.824 258.98 269.074 260.08 269.574 261.02C270.074 261.94 270.744 262.65 271.584 263.15C272.424 263.63 273.354 263.87 274.374 263.87C275.394 263.87 276.324 263.63 277.164 263.15C278.024 262.65 278.704 261.94 279.204 261.02C279.704 260.08 279.954 258.99 279.954 257.75ZM307.146 245.09V247.31H298.056V254.36H305.436V256.58H298.056V266H295.326V245.09H307.146ZM313.173 252.23C313.653 251.29 314.333 250.56 315.213 250.04C316.113 249.52 317.203 249.26 318.483 249.26V252.08H317.763C314.703 252.08 313.173 253.74 313.173 257.06V266H310.443V249.56H313.173V252.23ZM328.804 266.27C327.264 266.27 325.864 265.92 324.604 265.22C323.364 264.52 322.384 263.53 321.664 262.25C320.964 260.95 320.614 259.45 320.614 257.75C320.614 256.07 320.974 254.59 321.694 253.31C322.434 252.01 323.434 251.02 324.694 250.34C325.954 249.64 327.364 249.29 328.924 249.29C330.484 249.29 331.894 249.64 333.154 250.34C334.414 251.02 335.404 252 336.124 253.28C336.864 254.56 337.234 256.05 337.234 257.75C337.234 259.45 336.854 260.95 336.094 262.25C335.354 263.53 334.344 264.52 333.064 265.22C331.784 265.92 330.364 266.27 328.804 266.27ZM328.804 263.87C329.784 263.87 330.704 263.64 331.564 263.18C332.424 262.72 333.114 262.03 333.634 261.11C334.174 260.19 334.444 259.07 334.444 257.75C334.444 256.43 334.184 255.31 333.664 254.39C333.144 253.47 332.464 252.79 331.624 252.35C330.784 251.89 329.874 251.66 328.894 251.66C327.894 251.66 326.974 251.89 326.134 252.35C325.314 252.79 324.654 253.47 324.154 254.39C323.654 255.31 323.404 256.43 323.404 257.75C323.404 259.09 323.644 260.22 324.124 261.14C324.624 262.06 325.284 262.75 326.104 263.21C326.924 263.65 327.824 263.87 328.804 263.87ZM348.834 249.26C350.834 249.26 352.454 249.87 353.694 251.09C354.934 252.29 355.554 254.03 355.554 256.31V266H352.854V256.7C352.854 255.06 352.444 253.81 351.624 252.95C350.804 252.07 349.684 251.63 348.264 251.63C346.824 251.63 345.674 252.08 344.814 252.98C343.974 253.88 343.554 255.19 343.554 256.91V266H340.824V249.56H343.554V251.9C344.094 251.06 344.824 250.41 345.744 249.95C346.684 249.49 347.714 249.26 348.834 249.26ZM363.343 251.81V261.5C363.343 262.3 363.513 262.87 363.853 263.21C364.193 263.53 364.783 263.69 365.623 263.69H367.633V266H365.173C363.653 266 362.513 265.65 361.753 264.95C360.993 264.25 360.613 263.1 360.613 261.5V251.81H358.483V249.56H360.613V245.42H363.343V249.56H367.633V251.81H363.343ZM382.341 253.85V256.16H370.371V253.85H382.341ZM390.194 247.31V254.3H397.814V256.55H390.194V263.75H398.714V266H387.464V245.06H398.714V247.31H390.194ZM410.855 249.26C412.855 249.26 414.475 249.87 415.715 251.09C416.955 252.29 417.575 254.03 417.575 256.31V266H414.875V256.7C414.875 255.06 414.465 253.81 413.645 252.95C412.825 252.07 411.705 251.63 410.285 251.63C408.845 251.63 407.695 252.08 406.835 252.98C405.995 253.88 405.575 255.19 405.575 256.91V266H402.845V249.56H405.575V251.9C406.115 251.06 406.845 250.41 407.765 249.95C408.705 249.49 409.735 249.26 410.855 249.26ZM421.015 257.72C421.015 256.04 421.355 254.57 422.035 253.31C422.715 252.03 423.645 251.04 424.825 250.34C426.025 249.64 427.365 249.29 428.845 249.29C430.125 249.29 431.315 249.59 432.415 250.19C433.515 250.77 434.355 251.54 434.935 252.5V243.8H437.695V266H434.935V262.91C434.395 263.89 433.595 264.7 432.535 265.34C431.475 265.96 430.235 266.27 428.815 266.27C427.355 266.27 426.025 265.91 424.825 265.19C423.645 264.47 422.715 263.46 422.035 262.16C421.355 260.86 421.015 259.38 421.015 257.72ZM434.935 257.75C434.935 256.51 434.685 255.43 434.185 254.51C433.685 253.59 433.005 252.89 432.145 252.41C431.305 251.91 430.375 251.66 429.355 251.66C428.335 251.66 427.405 251.9 426.565 252.38C425.725 252.86 425.055 253.56 424.555 254.48C424.055 255.4 423.805 256.48 423.805 257.72C423.805 258.98 424.055 260.08 424.555 261.02C425.055 261.94 425.725 262.65 426.565 263.15C427.405 263.63 428.335 263.87 429.355 263.87C430.375 263.87 431.305 263.63 432.145 263.15C433.005 262.65 433.685 261.94 434.185 261.02C434.685 260.08 434.935 258.99 434.935 257.75ZM466.356 266L463.626 263.24C462.606 264.3 461.516 265.09 460.356 265.61C459.196 266.11 457.886 266.36 456.426 266.36C454.986 266.36 453.706 266.1 452.586 265.58C451.486 265.06 450.626 264.32 450.006 263.36C449.406 262.4 449.106 261.28 449.106 260C449.106 258.54 449.516 257.26 450.336 256.16C451.176 255.04 452.406 254.16 454.026 253.52C453.386 252.76 452.926 252.06 452.646 251.42C452.366 250.78 452.226 250.08 452.226 249.32C452.226 248.44 452.446 247.65 452.886 246.95C453.346 246.23 453.996 245.67 454.836 245.27C455.676 244.87 456.646 244.67 457.746 244.67C458.826 244.67 459.766 244.88 460.566 245.3C461.366 245.72 461.966 246.31 462.366 247.07C462.766 247.81 462.946 248.64 462.906 249.56H460.176C460.196 248.74 459.966 248.1 459.486 247.64C459.006 247.16 458.386 246.92 457.626 246.92C456.826 246.92 456.176 247.15 455.676 247.61C455.196 248.05 454.956 248.62 454.956 249.32C454.956 249.92 455.116 250.5 455.436 251.06C455.776 251.62 456.336 252.31 457.116 253.13L463.356 259.4L463.896 258.56L465.936 255.14H468.876L466.416 259.4C466.076 260 465.676 260.63 465.216 261.29L469.926 266H466.356ZM456.426 264.02C457.506 264.02 458.476 263.81 459.336 263.39C460.216 262.97 461.046 262.32 461.826 261.44L455.676 255.26C453.116 256.24 451.836 257.79 451.836 259.91C451.836 261.09 452.256 262.07 453.096 262.85C453.956 263.63 455.066 264.02 456.426 264.02ZM486.992 245.09C489.272 245.09 491.242 245.52 492.902 246.38C494.582 247.22 495.862 248.43 496.742 250.01C497.642 251.59 498.092 253.45 498.092 255.59C498.092 257.73 497.642 259.59 496.742 261.17C495.862 262.73 494.582 263.93 492.902 264.77C491.242 265.59 489.272 266 486.992 266H480.482V245.09H486.992ZM486.992 263.75C489.692 263.75 491.752 263.04 493.172 261.62C494.592 260.18 495.302 258.17 495.302 255.59C495.302 252.99 494.582 250.96 493.142 249.5C491.722 248.04 489.672 247.31 486.992 247.31H483.212V263.75H486.992ZM516.693 257.15C516.693 257.67 516.663 258.22 516.603 258.8H503.463C503.563 260.42 504.113 261.69 505.113 262.61C506.133 263.51 507.363 263.96 508.803 263.96C509.983 263.96 510.963 263.69 511.743 263.15C512.543 262.59 513.103 261.85 513.423 260.93H516.363C515.923 262.51 515.043 263.8 513.723 264.8C512.403 265.78 510.763 266.27 508.803 266.27C507.243 266.27 505.843 265.92 504.603 265.22C503.383 264.52 502.423 263.53 501.723 262.25C501.023 260.95 500.673 259.45 500.673 257.75C500.673 256.05 501.013 254.56 501.693 253.28C502.373 252 503.323 251.02 504.543 250.34C505.783 249.64 507.203 249.29 508.803 249.29C510.363 249.29 511.743 249.63 512.943 250.31C514.143 250.99 515.063 251.93 515.703 253.13C516.363 254.31 516.693 255.65 516.693 257.15ZM513.873 256.58C513.873 255.54 513.643 254.65 513.183 253.91C512.723 253.15 512.093 252.58 511.293 252.2C510.513 251.8 509.643 251.6 508.683 251.6C507.303 251.6 506.123 252.04 505.143 252.92C504.183 253.8 503.633 255.02 503.493 256.58H513.873ZM526.116 266.27C524.856 266.27 523.726 266.06 522.726 265.64C521.726 265.2 520.936 264.6 520.356 263.84C519.776 263.06 519.456 262.17 519.396 261.17H522.216C522.296 261.99 522.676 262.66 523.356 263.18C524.056 263.7 524.966 263.96 526.086 263.96C527.126 263.96 527.946 263.73 528.546 263.27C529.146 262.81 529.446 262.23 529.446 261.53C529.446 260.81 529.126 260.28 528.486 259.94C527.846 259.58 526.856 259.23 525.516 258.89C524.296 258.57 523.296 258.25 522.516 257.93C521.756 257.59 521.096 257.1 520.536 256.46C519.996 255.8 519.726 254.94 519.726 253.88C519.726 253.04 519.976 252.27 520.476 251.57C520.976 250.87 521.686 250.32 522.606 249.92C523.526 249.5 524.576 249.29 525.756 249.29C527.576 249.29 529.046 249.75 530.166 250.67C531.286 251.59 531.886 252.85 531.966 254.45H529.236C529.176 253.59 528.826 252.9 528.186 252.38C527.566 251.86 526.726 251.6 525.666 251.6C524.686 251.6 523.906 251.81 523.326 252.23C522.746 252.65 522.456 253.2 522.456 253.88C522.456 254.42 522.626 254.87 522.966 255.23C523.326 255.57 523.766 255.85 524.286 256.07C524.826 256.27 525.566 256.5 526.506 256.76C527.686 257.08 528.646 257.4 529.386 257.72C530.126 258.02 530.756 258.48 531.276 259.1C531.816 259.72 532.096 260.53 532.116 261.53C532.116 262.43 531.866 263.24 531.366 263.96C530.866 264.68 530.156 265.25 529.236 265.67C528.336 266.07 527.296 266.27 526.116 266.27ZM537.38 246.89C536.86 246.89 536.42 246.71 536.06 246.35C535.7 245.99 535.52 245.55 535.52 245.03C535.52 244.51 535.7 244.07 536.06 243.71C536.42 243.35 536.86 243.17 537.38 243.17C537.88 243.17 538.3 243.35 538.64 243.71C539 244.07 539.18 244.51 539.18 245.03C539.18 245.55 539 245.99 538.64 246.35C538.3 246.71 537.88 246.89 537.38 246.89ZM538.7 249.56V266H535.97V249.56H538.7ZM550.133 249.29C551.553 249.29 552.793 249.6 553.853 250.22C554.933 250.84 555.733 251.62 556.253 252.56V249.56H559.013V266.36C559.013 267.86 558.693 269.19 558.053 270.35C557.413 271.53 556.493 272.45 555.293 273.11C554.113 273.77 552.733 274.1 551.153 274.1C548.993 274.1 547.193 273.59 545.753 272.57C544.313 271.55 543.463 270.16 543.203 268.4H545.903C546.203 269.4 546.823 270.2 547.763 270.8C548.703 271.42 549.833 271.73 551.153 271.73C552.653 271.73 553.873 271.26 554.813 270.32C555.773 269.38 556.253 268.06 556.253 266.36V262.91C555.713 263.87 554.913 264.67 553.853 265.31C552.793 265.95 551.553 266.27 550.133 266.27C548.673 266.27 547.343 265.91 546.143 265.19C544.963 264.47 544.033 263.46 543.353 262.16C542.673 260.86 542.333 259.38 542.333 257.72C542.333 256.04 542.673 254.57 543.353 253.31C544.033 252.03 544.963 251.04 546.143 250.34C547.343 249.64 548.673 249.29 550.133 249.29ZM556.253 257.75C556.253 256.51 556.003 255.43 555.503 254.51C555.003 253.59 554.323 252.89 553.463 252.41C552.623 251.91 551.693 251.66 550.673 251.66C549.653 251.66 548.723 251.9 547.883 252.38C547.043 252.86 546.373 253.56 545.873 254.48C545.373 255.4 545.123 256.48 545.123 257.72C545.123 258.98 545.373 260.08 545.873 261.02C546.373 261.94 547.043 262.65 547.883 263.15C548.723 263.63 549.653 263.87 550.673 263.87C551.693 263.87 552.623 263.63 553.463 263.15C554.323 262.65 555.003 261.94 555.503 261.02C556.003 260.08 556.253 258.99 556.253 257.75ZM571.636 249.26C573.636 249.26 575.256 249.87 576.496 251.09C577.736 252.29 578.356 254.03 578.356 256.31V266H575.656V256.7C575.656 255.06 575.246 253.81 574.426 252.95C573.606 252.07 572.486 251.63 571.066 251.63C569.626 251.63 568.476 252.08 567.616 252.98C566.776 253.88 566.356 255.19 566.356 256.91V266H563.626V249.56H566.356V251.9C566.896 251.06 567.626 250.41 568.546 249.95C569.486 249.49 570.516 249.26 571.636 249.26ZM597.816 257.15C597.816 257.67 597.786 258.22 597.726 258.8H584.586C584.686 260.42 585.236 261.69 586.236 262.61C587.256 263.51 588.486 263.96 589.926 263.96C591.106 263.96 592.086 263.69 592.866 263.15C593.666 262.59 594.226 261.85 594.546 260.93H597.486C597.046 262.51 596.166 263.8 594.846 264.8C593.526 265.78 591.886 266.27 589.926 266.27C588.366 266.27 586.966 265.92 585.726 265.22C584.506 264.52 583.546 263.53 582.846 262.25C582.146 260.95 581.796 259.45 581.796 257.75C581.796 256.05 582.136 254.56 582.816 253.28C583.496 252 584.446 251.02 585.666 250.34C586.906 249.64 588.326 249.29 589.926 249.29C591.486 249.29 592.866 249.63 594.066 250.31C595.266 250.99 596.186 251.93 596.826 253.13C597.486 254.31 597.816 255.65 597.816 257.15ZM594.996 256.58C594.996 255.54 594.766 254.65 594.306 253.91C593.846 253.15 593.216 252.58 592.416 252.2C591.636 251.8 590.766 251.6 589.806 251.6C588.426 251.6 587.246 252.04 586.266 252.92C585.306 253.8 584.756 255.02 584.616 256.58H594.996ZM604.149 252.23C604.629 251.29 605.309 250.56 606.189 250.04C607.089 249.52 608.179 249.26 609.459 249.26V252.08H608.739C605.679 252.08 604.149 253.74 604.149 257.06V266H601.419V249.56H604.149V252.23ZM623.279 245.09V258.32C623.279 260.18 623.729 261.56 624.629 262.46C625.549 263.36 626.819 263.81 628.439 263.81C630.039 263.81 631.289 263.36 632.189 262.46C633.109 261.56 633.569 260.18 633.569 258.32V245.09H636.299V258.29C636.299 260.03 635.949 261.5 635.249 262.7C634.549 263.88 633.599 264.76 632.399 265.34C631.219 265.92 629.889 266.21 628.409 266.21C626.929 266.21 625.589 265.92 624.389 265.34C623.209 264.76 622.269 263.88 621.569 262.7C620.889 261.5 620.549 260.03 620.549 258.29V245.09H623.279ZM649.403 255.56L655.823 266H652.733L647.723 257.84L642.953 266H639.923L646.313 255.56L639.893 245.09H642.953L647.993 253.28L652.793 245.09H655.853L649.403 255.56ZM669.686 237.74L661.466 271.1H658.766L666.956 237.74H669.686ZM676.423 245.09V258.32C676.423 260.18 676.873 261.56 677.773 262.46C678.693 263.36 679.963 263.81 681.583 263.81C683.183 263.81 684.433 263.36 685.333 262.46C686.253 261.56 686.713 260.18 686.713 258.32V245.09H689.443V258.29C689.443 260.03 689.093 261.5 688.393 262.7C687.693 263.88 686.743 264.76 685.543 265.34C684.363 265.92 683.033 266.21 681.553 266.21C680.073 266.21 678.733 265.92 677.533 265.34C676.353 264.76 675.413 263.88 674.713 262.7C674.033 261.5 673.693 260.03 673.693 258.29V245.09H676.423ZM696.728 245.09V266H693.998V245.09H696.728Z" fill="#8882A5"/>
</svg>
